*******************************************************************************
                    Errors of the Human Body (2012) WEBRip
*******************************************************************************

-------------------------------------------------------------------------------
                              General Information
-------------------------------------------------------------------------------
Type.................: Movie



Video Format.........: AVI
Video Bitrate........: 1214
Resolution...........: 640 x 360
Color................: 8 bit
FPS..................: 24.000
Source...............: WEB 16:9
Original Format......: NTSC
Genre................: Science Fiction 
IMDb Rating..........: 5.1
Movie Information....: http://www.imdb.com/title/tt1835955/

-------------------------------------------------------------------------------
                               Post Information
-------------------------------------------------------------------------------
Posted by............: RadioResearch
Posted on............: 4/23/2013

-------------------------------------------------------------------------------
                                 Release Notes
-------------------------------------------------------------------------------
SEEDBOX SUPPORTED!!

Seeking a new laboratory to pursue his controversial genetic research, Dr Geoff 
Burton takes up a position at the world-renowned Institute for Molecular Cell 
Biology & Genetics in wintry Dresden, Germany. His contribution to their most 
top-secret project - a human regeneration gene - has the potential to make 
something miraculous out of a personal tragedy that has haunted him for years. 
But when he uncovers a conspiracy amongst his colleagues, he finds instead 
something quite different: a terrifying new virus, with potentially devastating 
consequences for humanity - and for Geoff, who is not only its first victim, but 
its unwitting source.

Enjoy!
RadioResearch

General
Complete name                            : G:Errors of the Human Body (2012) 
WEBRipErrors of the Human Body.avi
Format                                   : AVI
Format/Info                              : Audio Video Interleave
File size                                : 886 MiB
Duration                                 : 1h 42mn
Overall bit rate                         : 1 214 Kbps

Video
ID                                       : 0
Format                                   : mp43
Codec ID                                 : mp43
Duration                                 : 1h 42mn
Bit rate                                 : 1 074 Kbps
Width                                    : 640 pixels
Height                                   : 360 pixels
Display aspect ratio                     : 16:9
Frame rate                               : 24.000 fps
Bits/(Pixel*Frame)                       : 0.194
Stream size                              : 784 MiB (88%)

Audio
ID                                       : 1
Format                                   : MPEG Audio
Format version                           : Version 1
Format profile                           : Layer 3
Mode                                     : Joint stereo
Mode extension                           : MS Stereo
Codec ID                                 : 55
Codec ID/Hint                            : MP3
Duration                                 : 1h 42mn
Bit rate mode                            : Constant
Bit rate                                 : 128 Kbps
Channel(s)                               : 2 channels
Sampling rate                            : 44.1 KHz
Compression mode                         : Lossy
Stream size                              : 93.4 MiB (11%)
Alignment                                : Aligned on interleaves
Interleave, duration                     : 26 ms (0.63 video frame)
Writing library                          : LAME3.98.2




-------------------------------------------------------------------------------
Generated with Cool NFO Creator - http://fly.to/coolbeans
-------------------------------------------------------------------------------
